<svg width="25" height="25" viewBox="0 0 25 25" fill="none" xmlns="http://www.w3.org/2000/svg">
<g clip-path="url(#clip0_964_17638)">
<path d="M23.0507 0.996094H0.970742C0.439742 0.996094 0.0107422 1.42509 0.0107422 1.95609V24.0361C0.0107422 24.5671 0.439742 24.9961 0.970742 24.9961H23.0507C23.5817 24.9961 24.0107 24.5671 24.0107 24.0361V1.95609C24.0107 1.42509 23.5817 0.996094 23.0507 0.996094ZM20.2787 8.00109H18.3617C16.8587 8.00109 16.5677 8.71509 16.5677 9.76509V12.0781H20.1557L19.6877 15.6991H16.5677V24.9961H12.8267V15.7021H9.69774V12.0781H12.8267V9.40809C12.8267 6.30909 14.7197 4.62009 17.4857 4.62009C18.8117 4.62009 19.9487 4.71909 20.2817 4.76409V8.00109H20.2787Z" fill="#335BF5"/>
</g>
<defs>
<clipPath id="clip0_964_17638">
<rect width="24" height="24" fill="white" transform="translate(0.0107422 0.996094)"/>
</clipPath>
</defs>
</svg>
