<svg width="25" height="25" viewBox="0 0 25 25" fill="none" xmlns="http://www.w3.org/2000/svg">
<g clip-path="url(#clip0_964_17640)">
<path d="M12.0123 6.84353C8.60733 6.84353 5.85933 9.59153 5.85933 12.9965C5.85933 16.4015 8.60733 19.1495 12.0123 19.1495C15.4173 19.1495 18.1653 16.4015 18.1653 12.9965C18.1653 9.59153 15.4173 6.84353 12.0123 6.84353ZM12.0123 16.9955C9.81033 16.9955 8.01333 15.1985 8.01333 12.9965C8.01333 10.7945 9.81033 8.99753 12.0123 8.99753C14.2143 8.99753 16.0113 10.7945 16.0113 12.9965C16.0113 15.1985 14.2143 16.9955 12.0123 16.9955ZM18.4173 5.15753C17.6223 5.15753 16.9803 5.79953 16.9803 6.59453C16.9803 7.38953 17.6223 8.03153 18.4173 8.03153C19.2123 8.03153 19.8543 7.39253 19.8543 6.59453C19.8546 6.40575 19.8176 6.21879 19.7454 6.04433C19.6733 5.86988 19.5675 5.71137 19.434 5.57789C19.3005 5.4444 19.142 5.33857 18.9675 5.26643C18.7931 5.1943 18.6061 5.15729 18.4173 5.15753ZM24.0063 12.9965C24.0063 11.3405 24.0213 9.69953 23.9283 8.04653C23.8353 6.12653 23.3973 4.42253 21.9933 3.01853C20.5863 1.61153 18.8853 1.17653 16.9653 1.08353C15.3093 0.990531 13.6683 1.00553 12.0153 1.00553C10.3593 1.00553 8.71833 0.990531 7.06533 1.08353C5.14533 1.17653 3.44133 1.61453 2.03733 3.01853C0.63033 4.42553 0.19533 6.12653 0.10233 8.04653C0.00932979 9.70253 0.0243298 11.3435 0.0243298 12.9965C0.0243298 14.6495 0.00932979 16.2935 0.10233 17.9465C0.19533 19.8665 0.63333 21.5705 2.03733 22.9745C3.44433 24.3815 5.14533 24.8165 7.06533 24.9095C8.72133 25.0025 10.3623 24.9875 12.0153 24.9875C13.6713 24.9875 15.3123 25.0025 16.9653 24.9095C18.8853 24.8165 20.5893 24.3785 21.9933 22.9745C23.4003 21.5675 23.8353 19.8665 23.9283 17.9465C24.0243 16.2935 24.0063 14.6525 24.0063 12.9965ZM21.3663 20.0705C21.1473 20.6165 20.8833 21.0245 20.4603 21.4445C20.0373 21.8675 19.6323 22.1315 19.0863 22.3505C17.5083 22.9775 13.7613 22.8365 12.0123 22.8365C10.2633 22.8365 6.51333 22.9775 4.93533 22.3535C4.38933 22.1345 3.98133 21.8705 3.56133 21.4475C3.13833 21.0245 2.87433 20.6195 2.65533 20.0735C2.03133 18.4925 2.17233 14.7455 2.17233 12.9965C2.17233 11.2475 2.03133 7.49753 2.65533 5.91953C2.87433 5.37353 3.13833 4.96553 3.56133 4.54553C3.98433 4.12553 4.38933 3.85853 4.93533 3.63953C6.51333 3.01553 10.2633 3.15653 12.0123 3.15653C13.7613 3.15653 17.5113 3.01553 19.0893 3.63953C19.6353 3.85853 20.0433 4.12253 20.4633 4.54553C20.8863 4.96853 21.1503 5.37353 21.3693 5.91953C21.9933 7.49753 21.8523 11.2475 21.8523 12.9965C21.8523 14.7455 21.9933 18.4925 21.3663 20.0705Z" fill="#E61F5A"/>
</g>
<defs>
<clipPath id="clip0_964_17640">
<rect width="24" height="24" fill="white" transform="translate(0.0107422 0.996094)"/>
</clipPath>
</defs>
</svg>
