<svg width="25" height="25" viewBox="0 0 25 25" fill="none" xmlns="http://www.w3.org/2000/svg">
<g clip-path="url(#clip0_964_17684)">
<path d="M18.8586 12.9728C18.7472 12.8613 18.615 12.7728 18.4694 12.7124C18.3238 12.652 18.1678 12.621 18.0102 12.621C17.8526 12.621 17.6965 12.652 17.551 12.7124C17.4054 12.7728 17.2731 12.8613 17.1618 12.9728L15.249 14.8856C14.3622 14.6216 12.7074 14.0216 11.6587 12.9728C10.6099 11.924 10.0099 10.2692 9.74588 9.38245L11.6587 7.46967C11.7702 7.35832 11.8587 7.22608 11.919 7.0805C11.9794 6.93493 12.0105 6.77887 12.0105 6.62127C12.0105 6.46368 11.9794 6.30762 11.919 6.16205C11.8587 6.01647 11.7702 5.88423 11.6587 5.77288L6.8587 0.972932C6.74736 0.861398 6.61512 0.772913 6.46954 0.712541C6.32396 0.652169 6.16791 0.621094 6.01031 0.621094C5.85272 0.621094 5.69666 0.652169 5.55109 0.712541C5.40551 0.772913 5.27327 0.861398 5.16192 0.972932L1.90755 4.2273C1.45156 4.68329 1.19476 5.30969 1.20436 5.94928C1.23196 7.65806 1.68436 13.5932 6.36191 18.2708C11.0395 22.9483 16.9746 23.3995 18.6846 23.4283H18.7182C19.3518 23.4283 19.9506 23.1787 20.4042 22.7251L23.6585 19.4707C23.7701 19.3594 23.8586 19.2272 23.9189 19.0816C23.9793 18.936 24.0104 18.78 24.0104 18.6224C24.0104 18.4648 23.9793 18.3087 23.9189 18.1631C23.8586 18.0175 23.7701 17.8853 23.6585 17.774L18.8586 12.9728ZM18.7062 21.0271C17.2086 21.0019 12.0847 20.5999 8.05869 16.5728C4.01953 12.5336 3.62834 7.39167 3.60434 5.92408L6.01031 3.51811L9.11348 6.62127L7.5619 8.17286C7.42085 8.3138 7.31715 8.48766 7.26016 8.67874C7.20318 8.86981 7.1947 9.07207 7.2355 9.26725C7.2643 9.40525 7.96869 12.6776 9.96067 14.6696C11.9527 16.6616 15.225 17.366 15.363 17.3948C15.5581 17.4367 15.7605 17.4289 15.9518 17.3721C16.143 17.3153 16.3169 17.2112 16.4574 17.0696L18.0102 15.518L21.1134 18.6212L18.7062 21.0271Z" fill="#8EC2F2"/>
</g>
<defs>
<clipPath id="clip0_964_17684">
<rect width="24" height="24" fill="white" transform="translate(0.0107422 0.621094)"/>
</clipPath>
</defs>
</svg>
