<svg width="25" height="31" viewBox="0 0 25 31" fill="none" xmlns="http://www.w3.org/2000/svg">
<g clip-path="url(#clip0_964_17688)">
<path d="M12.0107 18.246C15.3196 18.246 18.0106 15.555 18.0106 12.246C18.0106 8.93706 15.3196 6.24609 12.0107 6.24609C8.70171 6.24609 6.01074 8.93706 6.01074 12.246C6.01074 15.555 8.70171 18.246 12.0107 18.246ZM12.0107 9.24606C13.6652 9.24606 15.0106 10.5915 15.0106 12.246C15.0106 13.9005 13.6652 15.246 12.0107 15.246C10.3562 15.246 9.01071 13.9005 9.01071 12.246C9.01071 10.5915 10.3562 9.24606 12.0107 9.24606Z" fill="#8EC2F2"/>
<path d="M11.1408 29.9668C11.3946 30.1481 11.6988 30.2455 12.0107 30.2455C12.3227 30.2455 12.6269 30.1481 12.8807 29.9668C13.3367 29.6443 24.0541 21.9059 24.0106 12.246C24.0106 5.62954 18.6272 0.246094 12.0107 0.246094C5.39432 0.246094 0.0108742 5.62954 0.0108742 12.2385C-0.0326253 21.9059 10.6848 29.6443 11.1408 29.9668ZM12.0107 3.24606C16.9742 3.24606 21.0106 7.28252 21.0106 12.2535C21.0421 18.9104 14.4287 24.8878 12.0107 26.8483C9.59427 24.8863 2.97934 18.9074 3.01084 12.246C3.01084 7.28252 7.0473 3.24606 12.0107 3.24606Z" fill="#8EC2F2"/>
</g>
<defs>
<clipPath id="clip0_964_17688">
<rect width="24" height="29.9997" fill="white" transform="translate(0.0107422 0.246094)"/>
</clipPath>
</defs>
</svg>
