<svg width="25" height="27" viewBox="0 0 25 27" fill="none" xmlns="http://www.w3.org/2000/svg">
<g clip-path="url(#clip0_964_17693)">
<path d="M23.7207 2.21231C23.5858 2.07261 23.4153 1.97588 23.2293 1.93351C23.0433 1.89114 22.8495 1.90487 22.6707 1.97311L0.670743 10.2931C0.481011 10.368 0.317663 10.5011 0.202394 10.6747C0.0871251 10.8484 0.0253906 11.0545 0.0253906 11.2655C0.0253906 11.4765 0.0871251 11.6826 0.202394 11.8563C0.317663 12.03 0.481011 12.1631 0.670743 12.2379L10.2707 16.2315L14.1107 26.2155C14.1829 26.4042 14.3066 26.5667 14.4665 26.6832C14.6264 26.7996 14.8156 26.8648 15.0107 26.8707C15.2128 26.8664 15.4089 26.7985 15.5731 26.676C15.7374 26.5534 15.8621 26.382 15.9307 26.1843L23.9307 3.30431C23.9989 3.12031 24.0153 2.91996 23.9781 2.72661C23.9409 2.53327 23.8517 2.3549 23.7207 2.21231ZM15.0107 22.9187L12.2207 15.6387L17.0107 10.6571L15.6007 9.19071L10.7707 14.2139L3.81074 11.2707L21.3407 4.68751L15.0107 22.9187Z" fill="#8EC2F2"/>
</g>
<defs>
<clipPath id="clip0_964_17693">
<rect width="24" height="26" fill="white" transform="translate(0.0107422 0.870728)"/>
</clipPath>
</defs>
</svg>
