<svg width="25" height="20" viewBox="0 0 25 20" fill="none" xmlns="http://www.w3.org/2000/svg">
<g clip-path="url(#clip0_964_17642)">
<path d="M24.0112 2.46157C23.1295 2.84751 22.1701 3.12527 21.1819 3.23345C22.2079 2.61488 22.9762 1.63765 23.3427 0.485101C22.38 1.06631 21.3252 1.47387 20.2253 1.68969C19.7656 1.19098 19.2096 0.793675 18.592 0.522547C17.9744 0.251418 17.3084 0.112273 16.6354 0.113782C13.9127 0.113782 11.7231 2.35339 11.7231 5.10174C11.7231 5.48767 11.7692 5.87361 11.8441 6.24493C7.76724 6.02857 4.13123 4.0521 1.71394 1.026C1.27348 1.78944 1.04267 2.65871 1.04551 3.54336C1.04551 5.27424 1.91274 6.80045 3.23519 7.69804C2.45585 7.6669 1.69476 7.44952 1.01382 7.06359V7.12498C1.01382 9.54879 2.70217 11.5574 4.95235 12.0194C4.52986 12.1307 4.09523 12.1877 3.65872 12.189C3.33891 12.189 3.03639 12.1568 2.73099 12.1129C3.35331 14.0894 5.16556 15.525 7.32354 15.5718C5.63519 16.9138 3.52042 17.7032 1.22414 17.7032C0.812139 17.7032 0.431827 17.6886 0.0371094 17.6418C2.21526 19.0598 4.79965 19.8785 7.58284 19.8785C16.6181 19.8785 21.5622 12.2825 21.5622 5.68941C21.5622 5.47305 21.5622 5.2567 21.5478 5.04034C22.5043 4.32986 23.3427 3.4498 24.0112 2.46157Z" fill="#21A6DF"/>
</g>
<defs>
<clipPath id="clip0_964_17642">
<rect width="24" height="19.7647" fill="white" transform="translate(0.0107422 0.11377)"/>
</clipPath>
</defs>
</svg>
