<svg width="65" height="72" viewBox="0 0 65 72" fill="none" xmlns="http://www.w3.org/2000/svg">
<g clip-path="url(#clip0_964_17605)">
<path d="M28.0315 43.4402C35.1397 43.4402 40.9204 37.2484 40.9204 29.6347C40.9204 22.0209 35.1397 15.8291 28.0315 15.8291C20.9232 15.8291 15.1426 22.0209 15.1426 29.6347C15.1426 37.2484 20.9232 43.4402 28.0315 43.4402ZM28.0315 22.7319C31.5856 22.7319 34.4759 25.8278 34.4759 29.6347C34.4759 33.4415 31.5856 36.5374 28.0315 36.5374C24.4774 36.5374 21.587 33.4415 21.587 29.6347C21.587 25.8278 24.4774 22.7319 28.0315 22.7319Z" fill="white"/>
<path d="M26.036 70.3594C26.6183 70.7825 27.3158 71.01 28.0313 71.01C28.7467 71.01 29.4443 70.7825 30.0265 70.3594C31.0722 69.6067 55.6512 51.5465 55.5515 29.0019C55.5515 13.5602 43.2052 0.996094 28.0313 0.996094C12.8573 0.996094 0.511045 13.5602 0.511045 28.9844C0.411284 51.5465 24.9903 69.6067 26.036 70.3594ZM28.0313 7.99754C39.4143 7.99754 48.6714 17.418 48.6714 29.0194C48.7436 44.5556 33.5766 58.506 28.0313 63.0814C22.4894 58.5025 7.31886 44.5486 7.3911 29.0019C7.3911 17.418 16.6482 7.99754 28.0313 7.99754Z" fill="white"/>
</g>
<defs>
<clipPath id="clip0_964_17605">
<rect width="64" height="71" fill="white" transform="translate(0.510742 0.996094)"/>
</clipPath>
</defs>
</svg>
