<svg width="56" height="72" viewBox="0 0 56 72" fill="none" xmlns="http://www.w3.org/2000/svg">
<path d="M24.166 70.3594C24.7851 70.7825 25.5268 71.01 26.2876 71.01C27.0484 71.01 27.7901 70.7825 28.4092 70.3594C29.5213 69.6067 55.6575 51.5465 55.5514 29.0019C55.5514 13.5602 42.4229 0.996094 26.2876 0.996094C10.1522 0.996094 -2.97624 13.5602 -2.97624 28.9844C-3.08232 51.5465 23.0539 69.6067 24.166 70.3594ZM26.2876 7.99754C38.3919 7.99754 48.2355 17.418 48.2355 29.0194C48.3123 44.5556 32.1843 58.506 26.2876 63.0814C20.3946 58.5025 4.2629 44.5486 4.33972 29.0019C4.33972 17.418 14.1833 7.99754 26.2876 7.99754Z" fill="white"/>
</svg>
