<svg width="72" height="73" viewBox="0 0 72 73" fill="none" xmlns="http://www.w3.org/2000/svg">
<path d="M55.9408 39.9908C55.5892 39.6387 55.1717 39.3593 54.7121 39.1687C54.2526 38.9781 53.7599 38.88 53.2624 38.88C52.7648 38.88 52.2722 38.9781 51.8126 39.1687C51.353 39.3593 50.9355 39.6387 50.584 39.9908L44.5453 46.0295C41.7456 45.196 36.5214 43.3018 33.2104 39.9908C29.8993 36.6797 28.0051 31.4555 27.1717 28.6559L33.2104 22.6172C33.5625 22.2657 33.8418 21.8482 34.0324 21.3886C34.223 20.929 34.3211 20.4364 34.3211 19.9388C34.3211 19.4413 34.223 18.9486 34.0324 18.489C33.8418 18.0294 33.5625 17.6119 33.2104 17.2604L18.0568 2.10685C17.7053 1.75474 17.2878 1.47539 16.8282 1.2848C16.3686 1.0942 15.876 0.996094 15.3784 0.996094C14.8809 0.996094 14.3882 1.0942 13.9286 1.2848C13.469 1.47539 13.0515 1.75474 12.7 2.10685L2.4259 12.381C0.986308 13.8206 0.175591 15.7981 0.205898 17.8173C0.293032 23.212 1.72126 41.9494 16.4884 56.7165C31.2556 71.4837 49.993 72.9081 55.3914 72.9991H55.4975C57.4978 72.9991 59.3882 72.2111 60.8202 70.7791L71.0943 60.5049C71.4464 60.1534 71.7258 59.7359 71.9164 59.2763C72.107 58.8167 72.2051 58.3241 72.2051 57.8265C72.2051 57.329 72.107 56.8363 71.9164 56.3767C71.7258 55.9172 71.4464 55.4997 71.0943 55.1481L55.9408 39.9908ZM55.4596 65.4185C50.7317 65.3389 34.5553 64.0698 21.8452 51.356C9.09347 38.6042 7.85845 22.371 7.78269 17.7378L15.3784 10.142L25.1752 19.9388L20.2768 24.8372C19.8315 25.2822 19.5041 25.8311 19.3242 26.4343C19.1443 27.0375 19.1176 27.6761 19.2464 28.2922C19.3373 28.7279 21.5611 39.0588 27.8498 45.3476C34.1385 51.6363 44.4695 53.8601 44.9052 53.951C45.5209 54.0835 46.1601 54.0588 46.7639 53.8794C47.3677 53.7 47.9166 53.3716 48.3602 52.9244L53.2624 48.026L63.0591 57.8228L55.4596 65.4185Z" fill="#0D5C63"/>
</svg>
