<svg width="73" height="73" viewBox="0 0 73 73" fill="none" xmlns="http://www.w3.org/2000/svg">
<g clip-path="url(#clip0_964_17616)">
<path d="M70.3592 2.65808C69.9699 2.25512 69.4781 1.97613 68.9416 1.8539C68.405 1.73168 67.8461 1.7713 67.3305 1.96812L3.87224 25.9669C3.32496 26.1828 2.85379 26.5667 2.5213 27.0677C2.18881 27.5687 2.01074 28.163 2.01074 28.7717C2.01074 29.3805 2.18881 29.9748 2.5213 30.4758C2.85379 30.9768 3.32496 31.3607 3.87224 31.5766L31.5631 43.096L42.6395 71.8945C42.8476 72.4387 43.2043 72.9076 43.6656 73.2434C44.1269 73.5793 44.6726 73.7673 45.2355 73.7844C45.8184 73.772 46.384 73.5761 46.8577 73.2227C47.3315 72.8692 47.6911 72.3748 47.8892 71.8045L70.9649 5.80792C71.1615 5.27718 71.2089 4.69927 71.1016 4.14158C70.9944 3.58389 70.7369 3.06939 70.3592 2.65808ZM45.2355 62.385L37.1878 41.3861L51.0044 27.0168L46.9373 22.787L33.0054 37.2763L12.9295 28.7867L63.4942 9.79772L45.2355 62.385Z" fill="#0D5C63"/>
</g>
<defs>
<clipPath id="clip0_964_17616">
<rect width="72" height="72" fill="white" transform="translate(0.510742 0.496094)"/>
</clipPath>
</defs>
</svg>
