<svg width="25" height="18" viewBox="0 0 25 18" fill="none" xmlns="http://www.w3.org/2000/svg">
<g clip-path="url(#clip0_964_17644)">
<path d="M23.4806 2.92776C23.3442 2.39479 23.077 1.90886 22.7059 1.51858C22.3347 1.12831 21.8726 0.847384 21.3657 0.703928C19.4992 0.17273 11.9986 0.172729 11.9986 0.172729C11.9986 0.172729 4.49803 0.17273 2.63145 0.703928C2.12459 0.847384 1.66246 1.12831 1.29131 1.51858C0.920152 1.90886 0.65299 2.39479 0.516562 2.92776C0.16803 4.92944 -0.00110331 6.9611 0.0113864 8.99602C-0.00110331 11.0309 0.16803 13.0626 0.516562 15.0643C0.65299 15.5972 0.920152 16.0832 1.29131 16.4735C1.66246 16.8637 2.12459 17.1447 2.63145 17.2881C4.49803 17.8193 11.9986 17.8193 11.9986 17.8193C11.9986 17.8193 19.4992 17.8193 21.3657 17.2881C21.8726 17.1447 22.3347 16.8637 22.7059 16.4735C23.077 16.0832 23.3442 15.5972 23.4806 15.0643C23.8292 13.0626 23.9983 11.0309 23.9858 8.99602C23.9983 6.9611 23.8292 4.92944 23.4806 2.92776ZM9.60116 12.7774V5.21461L15.8259 8.99602L9.60116 12.7774Z" fill="#E42F08"/>
</g>
<defs>
<clipPath id="clip0_964_17644">
<rect width="24" height="17.6842" fill="white" transform="translate(0.0107422 0.153931)"/>
</clipPath>
</defs>
</svg>
